<svg xmlns="http://www.w3.org/2000/svg" width="1625.793" height="126.862" viewBox="0 0 1625.793 126.862">
  <g id="Group_65897" data-name="Group 65897" transform="translate(-156 -5879)">
    <text id="من_نحن_الشروط_والاحكام_سیاسة_الخصوصیة_اتصل_بنا" data-name="من نحن         الشروط والاحكام         سیاسة الخصوصیة         اتصل بنا" transform="matrix(1, 0, 0, 1, 1190, 5898)" fill="#161d25" font-size="18" font-family="SegoeUI, Segoe UI"><tspan x="-504.545" y="0" xml:space="preserve">من نحن         الشروط والاحكام         سیاسة الخصوصیة         اتصل بنا</tspan></text>
    <text id="وسائل_الدفع_للمنصة" data-name="وسائل الدفع للمنصة" transform="matrix(1, 0, 0, 1, 1781.793, 5944)" fill="#161d25" font-size="18" font-family="SegoeUI, Segoe UI"><tspan x="-151.137" y="0">وسائل الدفع للمنصة</tspan></text>
    <text id="_خدمة._جميع_الحقوق_محفوظة." data-name="© خدمة. جميع الحقوق محفوظة." transform="matrix(1, 0, 0, 1, 1053, 5944)" fill="#161d25" font-size="17" font-family="SegoeUI, Segoe UI"><tspan x="-222.834" y="0">© </tspan><tspan y="0">خدمة. جميع الحقوق محفوظة</tspan><tspan y="0">.</tspan></text>
    <text id="تصميم_وتنفيد" data-name="تصميم وتنفيد" transform="translate(227 5994.862)" fill="#363636" font-size="18" font-family="SegoeUI, Segoe UI"><tspan x="0" y="0">تصميم وتنفيد</tspan></text>
    <g id="Group_52" data-name="Group 52" transform="translate(-313.939 5269.717)">
      <path id="Path_34" data-name="Path 34" d="M644.36,728.716l6.422-4.11V693.78L644.36,700.2Z" transform="translate(-152.446 0)" fill="#707070"/>
      <path id="Path_35" data-name="Path 35" d="M469.94,837.785l6.422,6.422h9.172l-3.73,3.73-.037-.037H473.6l-1.166-1.166-.308.259,7.329,7.329h8.734v-8.066l-8.231-8.471Z" transform="translate(0 -125.862)" fill="#707070"/>
      <path id="Path_36" data-name="Path 36" d="M876.411,781.762v21.382l-3.29,3.29,1,1,.366-.366,0,0,8.349-8.349V775.34Z" transform="translate(-352.387 -71.285)" fill="#707070"/>
      <path id="Path_37" data-name="Path 37" d="M725.574,777.542V801.8h.686l9.918-7.627-.157.157v11.11l-2.922,2.922.713.713.283.283,8.349-8.349V782.531l-16.183-4.817Zm.686,17.833v-10.7l9.761,4.282Z" transform="translate(-223.428 -73.209)" fill="#707070"/>
    </g>
    <g id="Brand" transform="translate(861 5972)">
      <g id="Brand-2" data-name="Brand">
        <g id="Iconspace_User_1_25px" data-name="Iconspace_User 1_25px">
          <path id="Path" d="M0,0H22V22H0Z" fill="none"/>
          <path id="Path-2" data-name="Path" d="M0,0H22V22H0Z" fill="none"/>
          <g id="facebook" transform="translate(1.76 1.76)">
            <path id="Path-3" data-name="Path" d="M17.464,0H1.016A1.016,1.016,0,0,0,0,1.016V17.464A1.016,1.016,0,0,0,1.016,18.48H9.868V11.319h-2.4V8.547h2.4V6.468a3.363,3.363,0,0,1,3.585-3.7,18.72,18.72,0,0,1,2.153.111V5.378H14.137c-1.164,0-1.386.554-1.386,1.358V8.519h2.772l-.36,2.772H12.751V18.48h4.712a1.016,1.016,0,0,0,1.016-1.016V1.016A1.016,1.016,0,0,0,17.464,0Z" transform="translate(0)" fill="#919eab"/>
          </g>
        </g>
      </g>
      <g id="Brand-3" data-name="Brand" transform="translate(42)">
        <g id="Iconspace_User_1_25px-2" data-name="Iconspace_User 1_25px">
          <path id="Path-4" data-name="Path" d="M0,0H22V22H0Z" fill="none"/>
          <path id="Path-5" data-name="Path" d="M0,0H22V22H0Z" fill="none"/>
          <g id="twitter_2_" data-name="twitter (2)" transform="translate(1.76 3.429)">
            <path id="Path-6" data-name="Path" d="M18.48,1.812a7.812,7.812,0,0,1-2.181.594A3.833,3.833,0,0,0,17.972.3a7.562,7.562,0,0,1-2.412.929A3.774,3.774,0,0,0,10.99.45,3.816,3.816,0,0,0,9.092,4.7,10.737,10.737,0,0,1,1.284.716,3.88,3.88,0,0,0,.776,2.639,3.8,3.8,0,0,0,2.458,5.806,3.727,3.727,0,0,1,.739,5.333v.046A3.8,3.8,0,0,0,3.788,9.095a3.614,3.614,0,0,1-1.016.158,4.5,4.5,0,0,1-.711-.065A3.8,3.8,0,0,0,5.6,11.825,7.57,7.57,0,0,1,.924,13.46,7.289,7.289,0,0,1,0,13.4a10.65,10.65,0,0,0,5.812,1.718,10.68,10.68,0,0,0,7.674-3.143,10.8,10.8,0,0,0,3.146-7.707V3.781A7.814,7.814,0,0,0,18.48,1.812Z" transform="translate(0 0)" fill="#919eab"/>
          </g>
        </g>
      </g>
      <g id="Brand-4" data-name="Brand" transform="translate(84)">
        <g id="Iconspace_User_1_25px-3" data-name="Iconspace_User 1_25px">
          <path id="Path-7" data-name="Path" d="M0,0H22V22H0Z" fill="none"/>
          <path id="Path-8" data-name="Path" d="M0,0H22V22H0Z" fill="none"/>
          <g id="linkedin" transform="translate(1.815 1.76)">
            <path id="Shape" d="M1.34,18.481h0A1.34,1.34,0,0,1,0,17.159V1.322A1.34,1.34,0,0,1,1.34,0H17.029a1.34,1.34,0,0,1,1.34,1.322V17.159a1.34,1.34,0,0,1-1.34,1.322H1.34ZM11.393,9.157c.932,0,1.4.622,1.4,1.848v4.463h2.772V10.682c0-2.384-1.162-3.752-3.188-3.752l-.1,0a2.779,2.779,0,0,0-2.4,1.388V7.143H7.106v8.316H9.878V10.839a1.828,1.828,0,0,1,.092-.674A1.531,1.531,0,0,1,11.393,9.157ZM2.8,7.152v8.316H5.572V7.152ZM4.186,3.1a1.441,1.441,0,0,0,0,2.883,1.451,1.451,0,1,0,0-2.883h0Z" transform="translate(0 0)" fill="#919eab"/>
          </g>
        </g>
      </g>
      <g id="Brand-5" data-name="Brand" transform="translate(126)">
        <g id="Iconspace_User_1_25px-4" data-name="Iconspace_User 1_25px">
          <path id="Path-9" data-name="Path" d="M0,0H22V22H0Z" fill="none"/>
          <path id="Path-10" data-name="Path" d="M0,0H22V22H0Z" fill="none"/>
          <g id="instagram_1_" data-name="instagram (1)" transform="translate(1.76 1.76)">
            <path id="Shape-2" data-name="Shape" d="M9.24,18.48c-2.506,0-2.827,0-3.807-.055a6.723,6.723,0,0,1-2.245-.434,4.444,4.444,0,0,1-1.635-1.063A4.364,4.364,0,0,1,.489,15.292a6.742,6.742,0,0,1-.434-2.245C0,12.068,0,11.746,0,9.24S0,6.413.055,5.433A6.742,6.742,0,0,1,.489,3.188,4.372,4.372,0,0,1,1.552,1.552,4.444,4.444,0,0,1,3.188.489,6.742,6.742,0,0,1,5.433.055C6.413,0,6.735,0,9.24,0s2.827,0,3.806.055a6.742,6.742,0,0,1,2.245.434,4.364,4.364,0,0,1,1.635,1.063A4.6,4.6,0,0,1,18,3.188a7,7,0,0,1,.425,2.245c.055.98.055,1.3.055,3.807,0,1.547-.021,2.247-.037,2.81-.01.347-.018.62-.018,1A7,7,0,0,1,18,15.292a4.508,4.508,0,0,1-1.072,1.635,4.364,4.364,0,0,1-1.635,1.063,6.723,6.723,0,0,1-2.245.434C12.068,18.48,11.746,18.48,9.24,18.48ZM5.581,16.725h0c.923.055,1.239.055,3.7.055,2.39,0,2.749-.008,3.7-.055a5.184,5.184,0,0,0,1.719-.314,2.933,2.933,0,0,0,1.063-.693,2.854,2.854,0,0,0,.693-1.063,5.156,5.156,0,0,0,.314-1.719c.047-.93.055-1.288.055-3.7s-.008-2.765-.055-3.7a5.176,5.176,0,0,0-.314-1.756,2.849,2.849,0,0,0-.693-1.016,2.833,2.833,0,0,0-1.1-.739,5.156,5.156,0,0,0-1.719-.314c-.923-.055-1.239-.055-3.7-.055-1.5,0-2.221.022-2.745.037-.335.01-.6.018-.952.018a5.275,5.275,0,0,0-1.756.314,2.914,2.914,0,0,0-1.016.739,2.8,2.8,0,0,0-.73,1.016,5.1,5.1,0,0,0-.323,1.756c-.055.924-.055,1.24-.055,3.7,0,1.5.022,2.221.037,2.745.01.335.018.6.018.951a5.106,5.106,0,0,0,.37,1.756,2.782,2.782,0,0,0,.683,1.063,3.014,3.014,0,0,0,1.016.693,5.294,5.294,0,0,0,1.7.278ZM9.252,13.98h0A4.74,4.74,0,0,1,9.24,4.5h.021A4.7,4.7,0,0,1,12.6,5.882a4.745,4.745,0,0,1-3.349,8.1ZM9.24,6.163A3.077,3.077,0,1,0,12.317,9.24,3.08,3.08,0,0,0,9.24,6.163Zm4.934-.749A1.11,1.11,0,1,1,14.6,5.33,1.1,1.1,0,0,1,14.174,5.415Z" transform="translate(0 0)" fill="#919eab"/>
          </g>
        </g>
      </g>
      <g id="Brand-6" data-name="Brand" transform="translate(168)">
        <g id="Iconspace_User_1_25px-5" data-name="Iconspace_User 1_25px">
          <path id="Path-11" data-name="Path" d="M0,0H22V22H0Z" fill="none"/>
          <path id="Path-12" data-name="Path" d="M0,0H22V22H0Z" fill="none"/>
          <g id="github" transform="translate(1.759 1.988)">
            <path id="Path-13" data-name="Path" d="M9.241,0A9.24,9.24,0,0,0,6.319,18.006c.462.081.635-.2.635-.439,0-.219-.012-.947-.012-1.721-2.322.427-2.922-.566-3.107-1.086a3.36,3.36,0,0,0-.947-1.305c-.323-.173-.785-.6-.012-.612a1.849,1.849,0,0,1,1.421.947,1.975,1.975,0,0,0,2.691.762,1.944,1.944,0,0,1,.589-1.236c-2.056-.231-4.2-1.028-4.2-4.562a3.6,3.6,0,0,1,.947-2.483,3.321,3.321,0,0,1,.092-2.449s.774-.243,2.541.947a8.711,8.711,0,0,1,4.62,0c1.767-1.2,2.541-.947,2.541-.947a3.32,3.32,0,0,1,.092,2.449,3.575,3.575,0,0,1,.947,2.483c0,3.546-2.16,4.331-4.216,4.562a2.188,2.188,0,0,1,.624,1.709c0,1.236-.012,2.229-.012,2.541,0,.243.173.531.635.439A9.245,9.245,0,0,0,9.241,0Z" transform="translate(0 0)" fill="#919eab"/>
          </g>
        </g>
      </g>
    </g>
  </g>
</svg>
