<svg id="Iconspace_User_1_25px" data-name="Iconspace_User 1_25px" xmlns="http://www.w3.org/2000/svg" width="22" height="22" viewBox="0 0 22 22">
  <path id="Path" d="M0,0H22V22H0Z" fill="none"/>
  <path id="Path-2" data-name="Path" d="M0,0H22V22H0Z" fill="none"/>
  <g id="linkedin" transform="translate(1.815 1.76)">
    <path id="Shape" d="M1.34,18.481h0A1.34,1.34,0,0,1,0,17.159V1.322A1.34,1.34,0,0,1,1.34,0H17.029a1.34,1.34,0,0,1,1.34,1.322V17.159a1.34,1.34,0,0,1-1.34,1.322H1.34ZM11.393,9.157c.932,0,1.4.622,1.4,1.848v4.463h2.772V10.682c0-2.384-1.162-3.752-3.188-3.752l-.1,0a2.779,2.779,0,0,0-2.4,1.388V7.143H7.106v8.316H9.878V10.839a1.828,1.828,0,0,1,.092-.674A1.531,1.531,0,0,1,11.393,9.157ZM2.8,7.152v8.316H5.572V7.152ZM4.186,3.1a1.441,1.441,0,0,0,0,2.883,1.451,1.451,0,1,0,0-2.883h0Z" transform="translate(0 0)" fill="#919eab"/>
  </g>
</svg>
