<svg xmlns="http://www.w3.org/2000/svg" width="25.358" height="25.358" viewBox="0 0 25.358 25.358">
  <g id="vuesax_bulk_user" data-name="vuesax/bulk/user" transform="translate(0.001 0)">
    <g id="user" transform="translate(-0.001 0)">
      <path id="Vector" d="M0,0H25.358V25.358H0Z" fill="none" opacity="0"/>
      <path id="Vector-2" data-name="Vector" d="M10.566,5.283A5.283,5.283,0,1,1,5.283,0,5.283,5.283,0,0,1,10.566,5.283Z" transform="translate(7.396 2.113)" fill="#1891c9" opacity="0.4"/>
      <path id="Vector-3" data-name="Vector" d="M9.6,0C4.311,0,0,3.55,0,7.925a.523.523,0,0,0,.528.528H18.681a.523.523,0,0,0,.528-.528C19.209,3.55,14.9,0,9.6,0Z" transform="translate(3.075 15.321)" fill="#1891c9"/>
    </g>
  </g>
</svg>
