<svg xmlns="http://www.w3.org/2000/svg" width="24" height="24" viewBox="0 0 24 24">
  <g id="vuesax_outline_category" data-name="vuesax/outline/category" transform="translate(-108 -190)">
    <g id="category">
      <path id="Vector" d="M5.75,9.5h-2A3.381,3.381,0,0,1,0,5.75v-2A3.381,3.381,0,0,1,3.75,0h2A3.381,3.381,0,0,1,9.5,3.75v2A3.381,3.381,0,0,1,5.75,9.5Zm-2-8c-1.58,0-2.25.67-2.25,2.25v2C1.5,7.33,2.17,8,3.75,8h2C7.33,8,8,7.33,8,5.75v-2C8,2.17,7.33,1.5,5.75,1.5Z" transform="translate(109.25 191.25)" fill="#131b3c"/>
      <path id="Vector-2" data-name="Vector" d="M5.75,9.5h-2A3.381,3.381,0,0,1,0,5.75v-2A3.381,3.381,0,0,1,3.75,0h2A3.381,3.381,0,0,1,9.5,3.75v2A3.381,3.381,0,0,1,5.75,9.5Zm-2-8c-1.58,0-2.25.67-2.25,2.25v2C1.5,7.33,2.17,8,3.75,8h2C7.33,8,8,7.33,8,5.75v-2C8,2.17,7.33,1.5,5.75,1.5Z" transform="translate(121.25 191.25)" fill="#131b3c"/>
      <path id="Vector-3" data-name="Vector" d="M5.75,9.5h-2A3.381,3.381,0,0,1,0,5.75v-2A3.381,3.381,0,0,1,3.75,0h2A3.381,3.381,0,0,1,9.5,3.75v2A3.381,3.381,0,0,1,5.75,9.5Zm-2-8c-1.58,0-2.25.67-2.25,2.25v2C1.5,7.33,2.17,8,3.75,8h2C7.33,8,8,7.33,8,5.75v-2C8,2.17,7.33,1.5,5.75,1.5Z" transform="translate(121.25 203.25)" fill="#131b3c"/>
      <path id="Vector-4" data-name="Vector" d="M5.75,9.5h-2A3.381,3.381,0,0,1,0,5.75v-2A3.381,3.381,0,0,1,3.75,0h2A3.381,3.381,0,0,1,9.5,3.75v2A3.381,3.381,0,0,1,5.75,9.5Zm-2-8c-1.58,0-2.25.67-2.25,2.25v2C1.5,7.33,2.17,8,3.75,8h2C7.33,8,8,7.33,8,5.75v-2C8,2.17,7.33,1.5,5.75,1.5Z" transform="translate(109.25 203.25)" fill="#131b3c"/>
      <path id="Vector-5" data-name="Vector" d="M0,0H24V24H0Z" transform="translate(108 190)" fill="none" opacity="0"/>
    </g>
  </g>
</svg>
