<svg xmlns="http://www.w3.org/2000/svg" width="27.953" height="27.953" viewBox="0 0 27.953 27.953">
  <g id="vuesax_bulk_shop" data-name="vuesax/bulk/shop" transform="translate(-172 -252)" opacity="0.95">
    <g id="shop" transform="translate(172 252)">
      <path id="Vector" d="M21.827.326V7.3A5.826,5.826,0,0,1,16,13.126H5.824A5.826,5.826,0,0,1,0,7.3V.408a4.749,4.749,0,0,0,3.506,1.5A4.767,4.767,0,0,0,7.268,0a4.372,4.372,0,0,0,3.646,1.91A4.349,4.349,0,0,0,14.536.047,4.775,4.775,0,0,0,18.263,1.91,4.647,4.647,0,0,0,21.827.326Z" transform="translate(3.063 12.94)" fill="#1891c9" opacity="0.4"/>
      <path id="Vector-2" data-name="Vector" d="M7.87,0H.882L.02,8.572a4.529,4.529,0,0,0,.338,2.213,4.352,4.352,0,0,0,4.03,2.609,4.34,4.34,0,0,0,4.042-2.6A4.634,4.634,0,0,0,8.778,9.12V8.9Z" transform="translate(9.589 1.456)" fill="#1891c9"/>
      <path id="Vector-3" data-name="Vector" d="M10.308,8.176,9.97,4.95C9.481,1.433,7.885,0,4.473,0H0L.862,8.735A4.183,4.183,0,0,1,.885,9.2a4.447,4.447,0,0,0,.536,1.666,4.829,4.829,0,0,0,4.17,2.527,4.638,4.638,0,0,0,3.82-1.9A4.743,4.743,0,0,0,10.308,8.176Z" transform="translate(15.735 1.456)" fill="#1891c9" opacity="0.6"/>
      <path id="Vector-4" data-name="Vector" d="M5.846,0C2.422,0,.838,1.433.337,4.985l-.314,3.2a4.788,4.788,0,0,0,.955,3.4A4.67,4.67,0,0,0,4.74,13.394,4.821,4.821,0,0,0,8.9,10.89a4.335,4.335,0,0,0,.559-1.759l.908-9.12H5.846Z" transform="translate(1.829 1.456)" fill="#1891c9" opacity="0.6"/>
      <path id="Vector-5" data-name="Vector" d="M2.6.041A2.906,2.906,0,0,0,0,2.941V6.7H6.7V3.349C6.709.915,5.276-.238,2.6.041Z" transform="translate(10.622 19.363)" fill="#1891c9"/>
      <path id="Vector-6" data-name="Vector" d="M0,0H27.953V27.953H0Z" fill="none" opacity="0"/>
    </g>
  </g>
</svg>
