<svg xmlns="http://www.w3.org/2000/svg" width="60.506" height="42.365" viewBox="0 0 60.506 42.365">
  <g id="Group_52" data-name="Group 52" transform="translate(-469.94 -693.78)">
    <path id="Path_34" data-name="Path 34" d="M644.36,728.716l6.422-4.11V693.78L644.36,700.2Z" transform="translate(-152.446 0)" fill="#707070"/>
    <path id="Path_35" data-name="Path 35" d="M469.94,837.785l6.422,6.422h9.172l-3.73,3.73-.037-.037H473.6l-1.166-1.166-.308.259,7.329,7.329h8.734v-8.066l-8.231-8.471Z" transform="translate(0 -125.862)" fill="#707070"/>
    <path id="Path_36" data-name="Path 36" d="M876.411,781.762v21.382l-3.29,3.29,1,1,.366-.366,0,0,8.349-8.349V775.34Z" transform="translate(-352.387 -71.285)" fill="#707070"/>
    <path id="Path_37" data-name="Path 37" d="M725.574,777.542V801.8h.686l9.918-7.627-.157.157v11.11l-2.922,2.922.713.713.283.283,8.349-8.349V782.531l-16.183-4.817Zm.686,17.833v-10.7l9.761,4.282Z" transform="translate(-223.428 -73.209)" fill="#707070"/>
  </g>
</svg>
